<?xml version="1.0" encoding="UTF-8" standalone="no"?>
<svg
   xmlns:dc="http://purl.org/dc/elements/1.1/"
   xmlns:cc="http://creativecommons.org/ns#"
   xmlns:rdf="http://www.w3.org/1999/02/22-rdf-syntax-ns#"
   xmlns:svg="http://www.w3.org/2000/svg"
   xmlns="http://www.w3.org/2000/svg"
   xmlns:sodipodi="http://sodipodi.sourceforge.net/DTD/sodipodi-0.dtd"
   xmlns:inkscape="http://www.inkscape.org/namespaces/inkscape"
   inkscape:version="1.0 (4035a4fb49, 2020-05-01)"
   height="81.455872"
   width="35.984001"
   sodipodi:docname="baddie.svg"
   id="svg8"
   version="1.1"
   viewBox="0 0 35.984001 81.455872">
  <metadata
     id="metadata14">
    <rdf:RDF>
      <cc:Work
         rdf:about="">
        <dc:format>image/svg+xml</dc:format>
        <dc:type
           rdf:resource="http://purl.org/dc/dcmitype/StillImage" />
        <dc:title></dc:title>
      </cc:Work>
    </rdf:RDF>
  </metadata>
  <defs
     id="defs12" />
  <sodipodi:namedview
     inkscape:current-layer="svg8"
     inkscape:window-maximized="1"
     inkscape:window-y="-8"
     inkscape:window-x="-8"
     inkscape:cy="12.571036"
     inkscape:cx="79.53255"
     inkscape:zoom="4.6178521"
     fit-margin-bottom="0"
     fit-margin-right="0"
     fit-margin-left="0"
     fit-margin-top="0"
     showgrid="false"
     id="namedview10"
     inkscape:window-height="1017"
     inkscape:window-width="1920"
     inkscape:pageshadow="2"
     inkscape:pageopacity="0"
     guidetolerance="10"
     gridtolerance="10"
     objecttolerance="10"
     borderopacity="1"
     bordercolor="#666666"
     pagecolor="#ffffff" />
  <g
     transform="translate(-182.476,-87.682132)"
     style="stroke:#9c9c9c;stroke-opacity:1"
     id="g895">
    <path
       style="fill:#231f20;stroke:#9c9c9c;stroke-opacity:1"
       id="path2"
       d="m 200.48,101.56513 c 3.711,0 6.711,-2.983998 6.711,-6.694998 0,-3.688 -3,-6.688 -6.711,-6.688 -3.688,0 -6.688,3 -6.688,6.688 0.001,3.711 3.001,6.694998 6.688,6.694998 z" />
    <path
       style="fill:#231f20;stroke:#9c9c9c;stroke-opacity:1"
       id="path4"
       d="m 191.43,164.88 c 0,2.078 1.656,3.758 3.734,3.758 2.07,0 3.758,-1.68 3.758,-3.758 v -31.492 h 3.148 v 31.492 c 0,2.078 1.688,3.758 3.758,3.758 2.078,0 3.742,-1.68 3.742,-3.758 l 0.023,-54.297 h 3.125 v 20.016 c 0,4.031 5.242,4.031 5.242,0 v -20.453 c 0,-4.445 -3.461,-8.789 -8.664,-8.789 l -17.75,-0.023 c -4.758,0 -8.57,3.875 -8.57,8.688 V 130.6 c 0,3.984 5.273,3.984 5.273,0 v -20.017 h 3.18 v 54.297 h 9.9e-4 z" />
    <g
       id="g869"
       transform="matrix(0.02712899,0,0,0.02712899,193.53196,89.217204)"
       style="fill:#00ffff;stroke:#9c9c9c;stroke-opacity:1">
      <g
         id="flat"
         style="fill:#00ffff;stroke:#9c9c9c;stroke-opacity:1">
        <path
           class="st0"
           d="m 389.7,345.4 c -4.4,0 -8,-3.6 -8,-8 0,-2.9 1.5,-5.5 4,-6.9 l 82.1,-46.8 c 7.5,-4.3 12.1,-12.2 12.1,-20.9 v -80.1 c 0,-13.3 -10.7,-24 -24,-24 -6.4,0 -12.5,2.5 -17,7 l -25.4,25.4 c -3.2,3.1 -8.2,3 -11.3,-0.2 -3,-3.1 -3,-8 0,-11.1 l 25.4,-25.4 c 15.6,-15.6 40.9,-15.6 56.6,0 7.5,7.5 11.7,17.7 11.7,28.3 v 80.1 c 0,14.4 -7.7,27.6 -20.2,34.8 l -82.1,46.8 c -1.1,0.7 -2.5,1 -3.9,1 z"
           id="path4-1"
           style="fill:#00ffff;stroke:#9c9c9c;stroke-opacity:1" />
        <path
           class="st0"
           d="m 122.3,345.4 c -1.4,0 -2.8,-0.4 -4,-1.1 L 36.2,297.5 C 23.7,290.5 16,277.2 16,262.8 v -80.1 c -0.2,-16.2 9.6,-30.9 24.7,-37 14.9,-6.4 32.2,-2.9 43.6,8.7 l 25.4,25.4 c 3.1,3.2 3,8.2 -0.2,11.3 -3.1,3 -8,3 -11.1,0 L 73,165.7 c -9.4,-9.4 -24.6,-9.4 -33.9,0 -4.5,4.5 -7,10.6 -7,17 v 80.1 c 0,8.6 4.6,16.6 12.1,20.9 l 82.1,46.8 c 3.8,2.2 5.2,7.1 3,10.9 -1.5,2.5 -4.2,4 -7,4 z"
           id="path6"
           style="fill:#00ffff;stroke:#9c9c9c;stroke-opacity:1" />
        <path
           class="st1"
           d="M 95.2,177.4 108,318.5 c 2.5,28.9 26.8,51.1 55.8,50.9 h 184.3 c 29,0.1 53.3,-22 55.8,-50.9 l 12.8,-141.1 z"
           id="path8"
           style="fill:#00ffff;stroke:#9c9c9c;stroke-opacity:1" />
        <g
           id="g14"
           style="fill:#00ffff;stroke:#9c9c9c;stroke-opacity:1">
          <path
             class="st2"
             d="m 109.1,233.8 h 293.8 v 16 H 109.1 Z"
             id="path10"
             style="fill:#00ffff;stroke:#9c9c9c;stroke-opacity:1" />
          <path
             class="st2"
             d="m 256,313.4 c -48.5,0.4 -96.9,-4.6 -144.3,-14.9 l 3.7,-15.6 c 46.2,10 93.4,14.8 140.6,14.4 47.3,0.4 94.4,-4.4 140.6,-14.4 l 3.7,15.6 c -47.4,10.4 -95.8,15.3 -144.3,14.9 z"
             id="path12"
             style="fill:#00ffff;stroke:#9c9c9c;stroke-opacity:1" />
        </g>
      </g>
    </g>
  </g>
</svg>
