<?xml version="1.0" encoding="UTF-8" standalone="no"?>
<svg
   xmlns:dc="http://purl.org/dc/elements/1.1/"
   xmlns:cc="http://creativecommons.org/ns#"
   xmlns:rdf="http://www.w3.org/1999/02/22-rdf-syntax-ns#"
   xmlns:svg="http://www.w3.org/2000/svg"
   xmlns="http://www.w3.org/2000/svg"
   xmlns:sodipodi="http://sodipodi.sourceforge.net/DTD/sodipodi-0.dtd"
   xmlns:inkscape="http://www.inkscape.org/namespaces/inkscape"
   inkscape:version="1.0 (4035a4fb49, 2020-05-01)"
   height="99.867126"
   width="97.835457"
   sodipodi:docname="communism.svg"
   id="svg30"
   viewBox="0 0 97.835457 99.867126"
   version="1.1">
  <metadata
     id="metadata36">
    <rdf:RDF>
      <cc:Work
         rdf:about="">
        <dc:format>image/svg+xml</dc:format>
        <dc:type
           rdf:resource="http://purl.org/dc/dcmitype/StillImage" />
        <dc:title></dc:title>
      </cc:Work>
    </rdf:RDF>
  </metadata>
  <defs
     id="defs34" />
  <sodipodi:namedview
     inkscape:current-layer="svg30"
     inkscape:window-maximized="0"
     inkscape:window-y="0"
     inkscape:window-x="0"
     inkscape:cy="52.072"
     inkscape:cx="52.868238"
     inkscape:zoom="2.9104443"
     fit-margin-bottom="0"
     fit-margin-right="0"
     fit-margin-left="0"
     fit-margin-top="0"
     showgrid="false"
     id="namedview32"
     inkscape:window-height="984"
     inkscape:window-width="1407"
     inkscape:pageshadow="2"
     inkscape:pageopacity="0"
     guidetolerance="10"
     gridtolerance="10"
     objecttolerance="10"
     borderopacity="1"
     bordercolor="#666666"
     pagecolor="#ffffff" />
  <path
     style="fill:#ff0000"
     id="path4"
     fill="#ffcc00"
     d="m 50.268238,0.012 c 10.062,7.731 48.827,35.012 26.769,71.216 l -39.569,-37.899 11.79,-12.608 -14.9,-3.5355 -20.456,21.971 8.5863,9.5964 9.3439,-9.849 37.123,38.638 c -15.915,3.8405 -31.141,0.78922 -45.709,-8.8388 l -3.7881,4.7982 c -5.9291,-1.1164 -5.6703,2.408 -4.9876,6.2503 -29.533,20.407 -6.3022002,31.371 3.4788,2.7779 2.2909,-0.40374 7.0092,1.0384 5.4449,-6.6598 15.373,10.675 30.227,24.475 55.474,13.794 l 11.049,9.9752 c 4.091,-0.86442 7.246,-2.7428 7.3236,-7.955 L 87.770838,82.34 C 101.90084,67.48 109.82084,19.406 50.270838,0 Z" />
</svg>
