<?xml version="1.0" encoding="UTF-8" standalone="no"?>
<svg
   xmlns:dc="http://purl.org/dc/elements/1.1/"
   xmlns:cc="http://creativecommons.org/ns#"
   xmlns:rdf="http://www.w3.org/1999/02/22-rdf-syntax-ns#"
   xmlns:svg="http://www.w3.org/2000/svg"
   xmlns="http://www.w3.org/2000/svg"
   xmlns:xlink="http://www.w3.org/1999/xlink"
   xmlns:sodipodi="http://sodipodi.sourceforge.net/DTD/sodipodi-0.dtd"
   xmlns:inkscape="http://www.inkscape.org/namespaces/inkscape"
   sodipodi:docname="coronaga.svg"
   inkscape:version="1.0 (4035a4fb49, 2020-05-01)"
   id="svg8"
   version="1.1"
   viewBox="0 0 204.9942 56.50964"
   height="56.50964mm"
   width="204.9942mm">
  <defs
     id="defs2">
    <linearGradient
       id="linearGradient823"
       inkscape:collect="always">
      <stop
         id="stop819"
         offset="0"
         style="stop-color:#368d83;stop-opacity:1" />
      <stop
         id="stop821"
         offset="1"
         style="stop-color:#3fff41;stop-opacity:1" />
    </linearGradient>
    <linearGradient
       y2="134.50229"
       x2="92.11364"
       y1="145.52754"
       x1="92.11364"
       gradientTransform="translate(1.7109546,11.342575)"
       gradientUnits="userSpaceOnUse"
       id="linearGradient891"
       xlink:href="#linearGradient823"
       inkscape:collect="always" />
    <linearGradient
       y2="134.50229"
       x2="92.11364"
       y1="145.52754"
       x1="92.11364"
       gradientTransform="translate(1.7109546,11.342575)"
       gradientUnits="userSpaceOnUse"
       id="linearGradient893"
       xlink:href="#linearGradient823"
       inkscape:collect="always" />
    <linearGradient
       y2="134.50229"
       x2="92.11364"
       y1="145.52754"
       x1="92.11364"
       gradientTransform="translate(1.7109546,11.342575)"
       gradientUnits="userSpaceOnUse"
       id="linearGradient895"
       xlink:href="#linearGradient823"
       inkscape:collect="always" />
    <linearGradient
       y2="134.50229"
       x2="92.11364"
       y1="145.52754"
       x1="92.11364"
       gradientTransform="translate(1.7109546,11.342575)"
       gradientUnits="userSpaceOnUse"
       id="linearGradient897"
       xlink:href="#linearGradient823"
       inkscape:collect="always" />
    <linearGradient
       y2="134.50229"
       x2="92.11364"
       y1="145.52754"
       x1="92.11364"
       gradientTransform="translate(1.7109546,11.342575)"
       gradientUnits="userSpaceOnUse"
       id="linearGradient899"
       xlink:href="#linearGradient823"
       inkscape:collect="always" />
    <linearGradient
       y2="134.50229"
       x2="92.11364"
       y1="145.52754"
       x1="92.11364"
       gradientTransform="translate(1.7109546,11.342575)"
       gradientUnits="userSpaceOnUse"
       id="linearGradient901"
       xlink:href="#linearGradient823"
       inkscape:collect="always" />
    <linearGradient
       y2="134.50229"
       x2="92.11364"
       y1="145.52754"
       x1="92.11364"
       gradientTransform="translate(1.7109546,11.342575)"
       gradientUnits="userSpaceOnUse"
       id="linearGradient903"
       xlink:href="#linearGradient823"
       inkscape:collect="always" />
    <linearGradient
       y2="134.50229"
       x2="92.11364"
       y1="145.52754"
       x1="92.11364"
       gradientTransform="translate(1.7109546,11.342575)"
       gradientUnits="userSpaceOnUse"
       id="linearGradient905"
       xlink:href="#linearGradient823"
       inkscape:collect="always" />
  </defs>
  <sodipodi:namedview
     fit-margin-bottom="0"
     fit-margin-right="0"
     fit-margin-left="0"
     fit-margin-top="0"
     inkscape:document-rotation="0"
     inkscape:window-maximized="0"
     inkscape:window-y="64"
     inkscape:window-x="32"
     inkscape:window-height="877"
     inkscape:window-width="1263"
     showgrid="false"
     inkscape:current-layer="layer1"
     inkscape:document-units="mm"
     inkscape:cy="67.513159"
     inkscape:cx="576.81433"
     inkscape:zoom="0.6"
     inkscape:pageshadow="2"
     inkscape:pageopacity="0.0"
     borderopacity="1.0"
     bordercolor="#666666"
     pagecolor="#ffffff"
     id="base" />
  <metadata
     id="metadata5">
    <rdf:RDF>
      <cc:Work
         rdf:about="">
        <dc:format>image/svg+xml</dc:format>
        <dc:type
           rdf:resource="http://purl.org/dc/dcmitype/StillImage" />
        <dc:title></dc:title>
      </cc:Work>
    </rdf:RDF>
  </metadata>
  <g
     transform="translate(-2.6496264,-116.92535)"
     id="layer1"
     inkscape:groupmode="layer"
     inkscape:label="Layer 1">
    <g
       id="g866">
      <path
         inkscape:connector-curvature="0"
         id="path888"
         style="font-style:normal;font-variant:normal;font-weight:normal;font-stretch:normal;font-size:50.8px;line-height:0;font-family:'Britannic Bold';-inkscape-font-specification:'Britannic Bold, ';letter-spacing:-2.14577px;word-spacing:0px;fill:url(#linearGradient905);fill-opacity:1;stroke:#ff0000;stroke-width:1;stroke-linecap:butt;stroke-miterlimit:4;stroke-dasharray:none;stroke-opacity:1;paint-order:markers fill stroke"
         d="m 204.4261,163.0627 c -2.21589,0.8599 -4.37389,1.28985 -6.47402,1.28985 -3.10886,0 -5.02709,-0.96738 -5.75469,-2.90215 -1.50482,2.01745 -3.6711,3.02617 -6.49883,3.02617 -5.27513,0 -7.91269,-2.4474 -7.91269,-7.34219 0,-3.7207 2.41432,-6.33346 7.24296,-7.83828 4.43177,-1.38906 6.64766,-3.05924 6.64766,-5.01054 0,-2.56315 -1.27331,-3.84473 -3.81992,-3.84473 -2.94349,0 -4.41524,1.24023 -4.41524,3.7207 0,0.77721 0.23151,1.80247 0.69453,3.07578 l -4.48964,-0.86816 c -0.11576,-0.77721 -0.17364,-1.50482 -0.17364,-2.18281 0,-3.96875 3.62149,-5.95313 10.86446,-5.95313 2.33508,0 4.27385,0.2134 5.8163,0.6402 0.52665,0.14572 3.06994,-6.65051 5.46122,-12.13724 0.26098,-0.59882 0.29755,-3.33334 -3.51482,-3.45623 -4.12749,-0.13304 -12.13586,2.35134 -11.99976,1.77859 1.24024,-5.21933 15.30967,-9.59287 19.89828,-4.56733 4.75623,5.20912 -6.83906,19.85384 -6.58548,20.1107 0.82867,0.83942 1.24301,1.90194 1.24301,3.18756 v 15.18047 c 0,1.55443 0.50436,2.33164 1.51308,2.33164 0.31419,0 0.77722,-0.17363 1.38907,-0.5209 z m -12.82402,-14.13867 c -0.56224,0.64493 -1.21543,1.18236 -1.95957,1.61231 -1.86862,1.09141 -2.80293,2.92695 -2.80293,5.50664 0,3.30729 0.64492,4.96094 1.93476,4.96094 1.88516,0 2.82774,-1.63711 2.82774,-4.91133 z"
         sodipodi:nodetypes="cscsscsssccssssssassssccccsssc" />
      <path
         inkscape:connector-curvature="0"
         id="path874"
         style="font-style:normal;font-variant:normal;font-weight:normal;font-stretch:normal;font-size:50.8px;line-height:0;font-family:'Britannic Bold';-inkscape-font-specification:'Britannic Bold, ';letter-spacing:-2.14577px;word-spacing:0px;fill:url(#linearGradient891);fill-opacity:1;stroke:#ff0000;stroke-width:1;stroke-linecap:butt;stroke-miterlimit:4;stroke-dasharray:none;stroke-opacity:1;paint-order:markers fill stroke"
         d="m 27.061344,150.3627 4.191992,1.09141 c 0.06615,0.85989 0.09922,1.60403 0.09922,2.23242 0,3.29076 -1.190625,5.92006 -3.571875,7.88789 -2.38125,1.96784 -5.572786,2.95176 -9.574609,2.95176 -10.0376304,0 -15.0564456,-5.6472 -15.0564456,-16.9416 0,-5.35781 1.4634766,-9.69863 4.3904297,-13.02246 2.9269529,-3.34037 6.7386069,-5.01055 11.4349609,-5.01055 3.672862,0 6.424993,0.8854 8.256392,2.6562 0.481447,0.46551 0.571413,1.65687 1.253451,1.58011 132.51631,-14.91376 115.86105,-14.47096 134.96291,-16.15893 7.44683,-0.65805 15.62261,0.10739 23.00841,4.81923 3.49749,2.23126 7.14739,5.00614 10.52159,9.12679 0.64656,0.78959 1.78783,1.38676 1.55454,2.05253 -1.1896,3.39488 -0.23871,1.18659 -1.1896,3.39488 -1.00125,2.32524 -0.0165,0.054 -2.97787,-3.68848 -5.28155,-6.67467 -14.90662,-15.83127 -40.35479,-11.96852 -28.39364,4.30983 -71.343162,6.94437 -98.546562,11.02679 -9.812697,1.4726 -17.782071,2.15402 -21.991256,3.52405 -2.264217,0.73697 -3.508739,4.09787 -3.508739,4.20215 l -4.216797,1.93476 c 0.04961,-0.99219 0.07441,-1.76113 0.07441,-2.30683 0,-4.99401 -2.000911,-7.49102 -6.002734,-7.49102 -4.233333,0 -6.35,5.29994 -6.35,15.89981 0,9.11159 2.364714,13.66738 7.094141,13.66738 1.951302,0 3.571875,-0.77721 4.861718,-2.33164 1.306381,-1.55443 1.959571,-3.49746 1.959571,-5.8291 0,-0.74414 -0.107487,-1.84382 -0.322461,-3.29903 z"
         sodipodi:nodetypes="ccscsscssssssssssssccsssscscc" />
      <path
         inkscape:connector-curvature="0"
         id="path876"
         style="font-style:normal;font-variant:normal;font-weight:normal;font-stretch:normal;font-size:50.8px;line-height:0;font-family:'Britannic Bold';-inkscape-font-specification:'Britannic Bold, ';letter-spacing:-2.14577px;word-spacing:0px;fill:url(#linearGradient893);fill-opacity:1;stroke:#ff0000;stroke-width:1;stroke-miterlimit:4;stroke-dasharray:none;stroke-opacity:1"
         d="m 43.791939,138.30763 c 8.268229,0 12.402344,4.36562 12.402344,13.09687 0,8.73125 -4.134115,13.09688 -12.402344,13.09688 -8.284765,0 -12.427148,-4.36563 -12.427148,-13.09688 0,-8.73125 4.142383,-13.09687 12.427148,-13.09687 z m -0.0248,2.20761 c -2.000911,0 -3.001367,3.62975 -3.001367,10.88926 0,7.25951 1.000456,10.88926 3.001367,10.88926 2.017448,0 3.026172,-3.62975 3.026172,-10.88926 0,-7.25951 -1.008724,-10.88926 -3.026172,-10.88926 z"
         sodipodi:nodetypes="ssssssssss" />
      <path
         inkscape:connector-curvature="0"
         id="path878"
         style="font-style:normal;font-variant:normal;font-weight:normal;font-stretch:normal;font-size:50.8px;line-height:0;font-family:'Britannic Bold';-inkscape-font-specification:'Britannic Bold, ';letter-spacing:-2.14577px;word-spacing:0px;fill:url(#linearGradient895);fill-opacity:1;stroke:#ff0000;stroke-width:1;stroke-miterlimit:4;stroke-dasharray:none;stroke-opacity:1"
         d="M 75.851832,148.03106 H 69.65066 c 0.214974,-0.97565 0.405143,-1.69498 0.570508,-2.158 0.23151,-0.678 0.347265,-1.28985 0.347265,-1.83555 0,-1.05833 -0.380338,-1.5875 -1.141015,-1.5875 -0.578776,0 -1.132747,0.7028 -1.661914,2.1084 -0.529167,1.38906 -0.79375,2.8608 -0.79375,4.41523 v 14.98203 h -9.053711 v -25.00312 l 1.761133,0.0248 c 2.083593,0 4.514453,-0.22324 7.292578,-0.66972 v 4.11757 c 1.471745,-2.74505 3.274218,-4.11757 5.407421,-4.11757 2.910417,0 4.365625,1.60404 4.365625,4.81211 0,0.84336 -0.14056,1.81074 -0.421679,2.90214 -0.09922,0.44649 -0.256315,1.11621 -0.471289,2.00918 z"
         sodipodi:nodetypes="cccsscsccccccsscc" />
      <path
         inkscape:connector-curvature="0"
         id="path880"
         style="font-style:normal;font-variant:normal;font-weight:normal;font-stretch:normal;font-size:50.8px;line-height:0;font-family:'Britannic Bold';-inkscape-font-specification:'Britannic Bold, ';letter-spacing:-2.14577px;word-spacing:0px;fill:url(#linearGradient897);fill-opacity:1;stroke:#ff0000;stroke-width:1;stroke-miterlimit:4;stroke-dasharray:none;stroke-opacity:1"
         d="m 88.712899,138.30763 c 8.268227,0 12.402341,4.36562 12.402341,13.09687 0,8.73125 -4.134114,13.09688 -12.402341,13.09688 -8.284765,0 -12.427148,-4.36563 -12.427148,-13.09688 0,-8.73125 4.142383,-13.09687 12.427148,-13.09687 z m -0.0248,2.20761 c -2.000911,0 -3.001367,3.62975 -3.001367,10.88926 0,7.25951 1.000456,10.88926 3.001367,10.88926 2.017448,0 3.026172,-3.62975 3.026172,-10.88926 0,-7.25951 -1.008724,-10.88926 -3.026172,-10.88926 z"
         sodipodi:nodetypes="ssssssssss" />
      <path
         inkscape:connector-curvature="0"
         id="path882"
         style="font-style:normal;font-variant:normal;font-weight:normal;font-stretch:normal;font-size:50.8px;line-height:0;font-family:'Britannic Bold';-inkscape-font-specification:'Britannic Bold, ';letter-spacing:-2.14577px;word-spacing:0px;fill:url(#linearGradient899);fill-opacity:1;stroke:#ff0000;stroke-width:1;stroke-miterlimit:4;stroke-dasharray:none;stroke-opacity:1"
         d="m 126.42826,163.95567 h -9.05371 V 145.6002 c 0,-1.86861 -0.5209,-2.80292 -1.5627,-2.80292 -1.05833,0 -1.97611,0.74414 -2.75332,2.23242 -0.77721,1.47174 -1.16582,3.21634 -1.16582,5.23379 v 13.69218 H 102.839 v -25.05273 c 3.10885,0 6.12676,-0.20671 9.05371,-0.62012 v 4.68809 c 2.24896,-3.10885 4.99401,-4.66328 8.23516,-4.66328 4.20026,0 6.30039,2.1332 6.30039,6.39961 z"
         sodipodi:nodetypes="ccsscscccccssc" />
      <path
         inkscape:connector-curvature="0"
         id="path884"
         style="font-style:normal;font-variant:normal;font-weight:normal;font-stretch:normal;font-size:50.8px;line-height:0;font-family:'Britannic Bold';-inkscape-font-specification:'Britannic Bold, ';letter-spacing:-2.14577px;word-spacing:0px;fill:url(#linearGradient901);fill-opacity:1;stroke:#ff0000;stroke-width:1;stroke-miterlimit:4;stroke-dasharray:none;stroke-opacity:1"
         d="m 154.64342,163.0627 c -2.21589,0.8599 -4.37389,1.28985 -6.47402,1.28985 -3.10885,0 -5.02708,-0.96738 -5.75469,-2.90215 -1.50481,2.01745 -3.67109,3.02617 -6.49883,3.02617 -5.27513,0 -7.91269,-2.4474 -7.91269,-7.34219 0,-3.7207 2.41432,-6.33346 7.24297,-7.83828 4.43177,-1.38906 6.64765,-3.05924 6.64765,-5.01054 0,-2.56315 -1.27331,-3.84473 -3.81992,-3.84473 -2.94349,0 -4.41523,1.24023 -4.41523,3.7207 0,0.77721 0.23151,1.80247 0.69453,3.07578 l -4.48965,-0.86816 c -0.11575,-0.77721 -0.17363,-1.50482 -0.17363,-2.18281 0,-3.96875 3.62148,-5.95313 10.86445,-5.95313 6.87917,0 10.31875,1.85208 10.31875,5.55625 v 15.18047 c 0,1.55443 0.50436,2.33164 1.51309,2.33164 0.31419,0 0.77721,-0.17363 1.38906,-0.5209 z M 141.8194,148.92403 c -0.56224,0.64493 -1.21543,1.18236 -1.95957,1.61231 -1.86862,1.09141 -2.80293,2.92695 -2.80293,5.50664 0,3.30729 0.64492,4.96094 1.93476,4.96094 1.88516,0 2.82774,-1.63711 2.82774,-4.91133 z"
         sodipodi:nodetypes="cscsscsssccsssssccccsssc" />
      <path
         inkscape:connector-curvature="0"
         id="path886"
         style="font-style:normal;font-variant:normal;font-weight:normal;font-stretch:normal;font-size:50.8px;line-height:0;font-family:'Britannic Bold';-inkscape-font-specification:'Britannic Bold, ';letter-spacing:-2.14577px;word-spacing:0px;fill:url(#linearGradient903);fill-opacity:1;stroke:#ff0000;stroke-width:1;stroke-miterlimit:4;stroke-dasharray:none;stroke-opacity:1"
         d="m 170.45625,139.2006 c 4.2168,1.80247 6.3252,4.4235 6.3252,7.86308 0,2.26549 -1.05833,4.20026 -3.175,5.8043 -2.11667,1.60403 -4.67155,2.40605 -7.66465,2.40605 -1.15755,0 -2.72025,-0.14883 -4.68809,-0.44648 -1.14101,0.66146 -1.71152,1.32292 -1.71152,1.98437 0,0.90951 0.7028,1.36426 2.1084,1.36426 0.3638,0 1.09967,-0.0331 2.20761,-0.0992 2.79467,-0.1819 4.82865,-0.27285 6.10196,-0.27285 6.01927,0 9.0289,2.28203 9.0289,6.84609 0,5.52318 -4.98574,8.28477 -14.95722,8.28477 -7.42487,0 -11.13731,-1.5627 -11.13731,-4.68809 0,-1.80247 1.50482,-3.02617 4.51446,-3.67109 -3.20807,-0.84336 -4.81211,-2.24069 -4.81211,-4.19199 0,-2.43086 1.90996,-4.57233 5.72988,-6.42442 -3.3569,-1.35599 -5.03535,-3.66282 -5.03535,-6.9205 0,-2.48047 1.01699,-4.5558 3.05097,-6.22598 2.03399,-1.68672 4.5558,-2.53008 7.56543,-2.53008 1.02526,0 2.37298,0.10749 4.04317,0.32246 -0.0827,-0.57877 -0.12403,-1.03352 -0.12403,-1.36425 0,-3.27422 1.71152,-4.91133 5.13457,-4.91133 2.72852,0 4.09278,1.14928 4.09278,3.44785 0,1.75287 -0.81856,2.6293 -2.45567,2.6293 -0.5457,0 -1.19062,-0.1819 -1.93476,-0.54571 -0.46302,-0.23151 -0.81029,-0.35553 -1.0418,-0.37207 -0.77721,-0.0496 -1.16582,0.52091 -1.16582,1.71153 z m -5.58105,1.53789 c -1.68672,0 -2.53008,2.10013 -2.53008,6.30039 0,3.85299 0.87643,5.77949 2.62929,5.77949 1.60404,0 2.40606,-1.71152 2.40606,-5.13457 0,-4.63021 -0.83509,-6.94531 -2.50527,-6.94531 z m -0.24805,24.85429 c -4.2168,0 -6.3252,0.81856 -6.3252,2.45567 0,1.62057 2.04225,2.43086 6.12676,2.43086 4.74597,0 7.11895,-0.90951 7.11895,-2.72852 0,-1.43867 -2.30684,-2.15801 -6.92051,-2.15801 z"
         sodipodi:nodetypes="cscscsscsssscscscscssssccccssssssssss" />
      <path
         style="fill:#ffffff;fill-opacity:1;fill-rule:evenodd;stroke:#000000;stroke-width:0.810973;stroke-linecap:square;stroke-linejoin:bevel;stroke-miterlimit:4;stroke-dasharray:none;stroke-opacity:1;paint-order:fill markers stroke"
         inkscape:transform-center-y="2.1347714e-05"
         d="m 146.74062,139.00267 -1.5223,1.83534 0.21469,-2.58074 -6.17955,3.84331 5.25672,-5.03237 -2.65541,0.099 2.25786,-1.55068 -7.08723,-1.65196 7.27548,0.15863 -1.94541,-1.83617 2.6908,0.52855 -3.84331,-6.17954 5.03238,5.25671 -0.0229,-3.0209 1.47459,2.62335 1.65196,-7.08723 -0.15863,5.86241 8.02956,-11.03814 -5.30887,12.13681 4.76648,-2.78351 -5.25672,5.03237 3.37688,-0.19952 -2.97933,1.65122 7.08723,1.65197 -7.27548,-0.15864 1.97257,2.02776 -2.71797,-0.72013 3.84331,6.17954 -5.03237,-5.25672 0.0106,2.83204 -1.46235,-2.43449 -1.65197,7.08724 z"
         id="path919"
         inkscape:connector-curvature="0"
         sodipodi:nodetypes="ccccccccccccccccccccccccccccccccc"
         inkscape:transform-center-x="4.8167064e-06" />
    </g>
    <flowRoot
       transform="scale(0.26458333)"
       style="font-style:normal;font-variant:normal;font-weight:normal;font-stretch:normal;font-size:40px;line-height:1.25;font-family:'Britannic Bold';-inkscape-font-specification:'Britannic Bold, ';letter-spacing:0px;word-spacing:0px"
       id="flowRoot827"
       xml:space="preserve"><flowRegion
         id="flowRegion829"><rect
           y="582.51971"
           x="2.8571429"
           height="51.42857"
           width="205.71428"
           id="rect831" /></flowRegion><flowPara
         id="flowPara833" /></flowRoot>
  </g>
</svg>
